<svg width="61" height="61" viewBox="0 0 61 61" fill="none" xmlns="http://www.w3.org/2000/svg">
<path fill-rule="evenodd" clip-rule="evenodd" d="M6.08333 57.7917H42.5833C44.2632 57.7917 45.625 56.4299 45.625 54.75V6.08333C45.625 4.40347 44.2632 3.04167 42.5833 3.04167H6.08333C4.40347 3.04167 3.04167 4.40347 3.04167 6.08333V54.75C3.04167 56.4299 4.40347 57.7917 6.08333 57.7917ZM42.5833 60.8333H6.08333C2.7236 60.8333 0 58.1097 0 54.75V6.08333C0 2.7236 2.7236 0 6.08333 0H42.5833C45.943 0 48.6667 2.7236 48.6667 6.08333V54.75C48.6667 58.1097 45.943 60.8333 42.5833 60.8333Z" fill="black"/>
<path fill-rule="evenodd" clip-rule="evenodd" d="M21.2917 13.6875C21.2917 12.8475 21.9725 12.1667 22.8125 12.1667H41.0625C41.9025 12.1667 42.5833 12.8475 42.5833 13.6875C42.5833 14.5275 41.9025 15.2083 41.0625 15.2083H22.8125C21.9725 15.2083 21.2917 14.5275 21.2917 13.6875Z" fill="black"/>
<path fill-rule="evenodd" clip-rule="evenodd" d="M21.2917 19.7708C21.2917 18.9309 21.9725 18.25 22.8125 18.25H41.0625C41.9025 18.25 42.5833 18.9309 42.5833 19.7708C42.5833 20.6108 41.9025 21.2917 41.0625 21.2917H22.8125C21.9725 21.2917 21.2917 20.6108 21.2917 19.7708Z" fill="black"/>
<path fill-rule="evenodd" clip-rule="evenodd" d="M21.2917 31.9375C21.2917 31.0975 21.9725 30.4167 22.8125 30.4167H41.0625C41.9025 30.4167 42.5833 31.0975 42.5833 31.9375C42.5833 32.7775 41.9025 33.4583 41.0625 33.4583H22.8125C21.9725 33.4583 21.2917 32.7775 21.2917 31.9375Z" fill="black"/>
<path fill-rule="evenodd" clip-rule="evenodd" d="M21.2917 38.0208C21.2917 37.1809 21.9725 36.5 22.8125 36.5H41.0625C41.9025 36.5 42.5833 37.1809 42.5833 38.0208C42.5833 38.8608 41.9025 39.5417 41.0625 39.5417H22.8125C21.9725 39.5417 21.2917 38.8608 21.2917 38.0208Z" fill="black"/>
<path fill-rule="evenodd" clip-rule="evenodd" d="M9.125 33.4583V38.0208H13.6875V33.4583H9.125ZM7.60417 30.4167H15.2083C16.0483 30.4167 16.7292 31.0975 16.7292 31.9375V39.5417C16.7292 40.3816 16.0483 41.0625 15.2083 41.0625H7.60417C6.76424 41.0625 6.08333 40.3816 6.08333 39.5417V31.9375C6.08333 31.0975 6.76424 30.4167 7.60417 30.4167Z" fill="black"/>
<path fill-rule="evenodd" clip-rule="evenodd" d="M17.8045 12.6121C18.3984 13.206 18.3984 14.169 17.8045 14.7629L10.6458 21.9216L6.52877 17.8045C5.93485 17.2107 5.93485 16.2477 6.52877 15.6538C7.1227 15.0599 8.08563 15.0599 8.67956 15.6538L10.6458 17.6201L15.6538 12.6121C16.2477 12.0182 17.2107 12.0182 17.8045 12.6121Z" fill="black"/>
<path fill-rule="evenodd" clip-rule="evenodd" d="M57.7917 30.4167H54.75V53.7361L56.2708 55.7639L57.7917 53.7361V30.4167ZM60.8333 54.75L56.2708 60.8333L51.7083 54.75V27.375H60.8333V54.75Z" fill="black"/>
<path fill-rule="evenodd" clip-rule="evenodd" d="M57.7917 19.7708H54.75V22.8125H57.7917V19.7708ZM54.75 16.7292H57.7917C59.4716 16.7292 60.8333 18.0909 60.8333 19.7708V25.8542H51.7083V19.7708C51.7083 18.0909 53.0701 16.7292 54.75 16.7292Z" fill="black"/>
</svg>
