<svg width="41" height="32" viewBox="0 0 41 32" fill="none" xmlns="http://www.w3.org/2000/svg">
<mask id="mask0_365_68" style="mask-type:alpha" maskUnits="userSpaceOnUse" x="0" y="0" width="41" height="32">
<path d="M36.6883 3.02775C39.0058 5.48925 40.2501 8.25 40.2501 12.7253C40.2501 20.6003 34.7218 27.6585 26.6826 31.1483L24.6733 28.0477C32.1771 23.9887 33.6441 18.7215 34.2291 15.4005C33.0208 16.026 31.4391 16.2443 29.8888 16.1003C25.8298 15.7245 22.6303 12.3922 22.6303 8.25C22.6303 6.16142 23.46 4.15838 24.9369 2.68153C26.4137 1.20469 28.4167 0.375 30.5053 0.375C32.9196 0.375 35.2281 1.4775 36.6883 3.02775ZM14.1883 3.02775C16.5058 5.48925 17.7501 8.25 17.7501 12.7253C17.7501 20.6003 12.2218 27.6585 4.18257 31.1483L2.17332 28.0477C9.67707 23.9887 11.1441 18.7215 11.7291 15.4005C10.5208 16.026 8.93907 16.2443 7.38882 16.1003C3.32982 15.7245 0.132568 12.3922 0.132568 8.25C0.132568 6.16142 0.962253 4.15838 2.4391 2.68153C3.91595 1.20469 5.91899 0.375 8.00757 0.375C10.4218 0.375 12.7303 1.4775 14.1906 3.02775H14.1883Z" fill="black"/>
</mask>
<g mask="url(#mask0_365_68)">
<rect x="-41" y="-30" width="122" height="90" fill="#02D6CE"/>
</g>
</svg>
