<svg width="41" height="31" viewBox="0 0 41 31" fill="none" xmlns="http://www.w3.org/2000/svg">
<mask id="mask0_366_92" style="mask-type:alpha" maskUnits="userSpaceOnUse" x="0" y="0" width="41" height="31">
<mask id="mask1_366_92" style="mask-type:alpha" maskUnits="userSpaceOnUse" x="0" y="0" width="41" height="31">
<path d="M36.5557 2.65275C38.8732 5.11425 40.1175 7.875 40.1175 12.3503C40.1175 20.2253 34.5893 27.2835 26.55 30.7733L24.5407 27.6727C32.0445 23.6137 33.5115 18.3465 34.0965 15.0255C32.8882 15.651 31.3065 15.8693 29.7563 15.7253C25.6973 15.3495 22.4977 12.0172 22.4977 7.875C22.4977 5.78642 23.3274 3.78338 24.8043 2.30653C26.2811 0.829686 28.2842 0 30.3728 0C32.787 0 35.0955 1.1025 36.5557 2.65275ZM14.0557 2.65275C16.3732 5.11425 17.6175 7.875 17.6175 12.3503C17.6175 20.2253 12.0892 27.2835 4.05 30.7733L2.04075 27.6727C9.5445 23.6137 11.0115 18.3465 11.5965 15.0255C10.3883 15.651 8.8065 15.8693 7.25625 15.7253C3.19725 15.3495 0 12.0172 0 7.875C0 5.78642 0.829684 3.78338 2.30653 2.30653C3.78338 0.829686 5.78642 0 7.875 0C10.2892 0 12.5978 1.1025 14.058 2.65275H14.0557Z" fill="black"/>
</mask>
<g mask="url(#mask1_366_92)">
<rect x="-41.1326" y="-30.375" width="122" height="90" fill="#02D6CE"/>
</g>
</mask>
<g mask="url(#mask0_366_92)">
<rect x="-15" y="-24" width="79" height="67" fill="#9F65DC"/>
</g>
</svg>
