<svg width="38" height="29" viewBox="0 0 38 29" fill="none" xmlns="http://www.w3.org/2000/svg">
<mask id="mask0_367_105" style="mask-type:alpha" maskUnits="userSpaceOnUse" x="0" y="0" width="38" height="29">
<mask id="mask1_367_105" style="mask-type:alpha" maskUnits="userSpaceOnUse" x="0" y="0" width="38" height="29">
<mask id="mask2_367_105" style="mask-type:alpha" maskUnits="userSpaceOnUse" x="0" y="0" width="38" height="29">
<path d="M3.29784 2.45625C1.152 4.73542 -7.98043e-05 7.29167 -7.98043e-05 11.4354C-7.98043e-05 18.7271 5.11867 25.2625 12.5624 28.4937L14.4228 25.6229C7.47492 21.8646 6.11659 16.9875 5.57492 13.9125C6.69367 14.4917 8.15825 14.6938 9.59367 14.5604C13.352 14.2125 16.3145 11.1271 16.3145 7.29167C16.3145 5.3578 15.5463 3.50313 14.1788 2.13568C12.8114 0.768227 10.9567 0 9.02284 0C6.78742 0 4.64992 1.02083 3.29784 2.45625ZM24.1312 2.45625C21.9853 4.73542 20.8333 7.29167 20.8333 11.4354C20.8333 18.7271 25.952 25.2625 33.3958 28.4937L35.2562 25.6229C28.3083 21.8646 26.9499 16.9875 26.4083 13.9125C27.527 14.4917 28.9916 14.6938 30.427 14.5604C34.1853 14.2125 37.1458 11.1271 37.1458 7.29167C37.1458 5.3578 36.3775 3.50313 35.0101 2.13568C33.6426 0.768227 31.788 0 29.8541 0C27.6187 0 25.4812 1.02083 24.1291 2.45625H24.1312Z" fill="black"/>
</mask>
<g mask="url(#mask2_367_105)">
<rect x="-25" y="-13" width="87" height="53" fill="#02D6CE"/>
</g>
</mask>
<g mask="url(#mask1_367_105)">
<rect x="-10" y="-22" width="79" height="67" fill="#9F65DC"/>
</g>
</mask>
<g mask="url(#mask0_367_105)">
<rect x="-14" y="-22" width="65" height="55" fill="#F1A30B"/>
</g>
</svg>
